<?xml version="1.0" encoding="UTF-8"?>
<svg id="Layer_1" xmlns="http://www.w3.org/2000/svg" version="1.1" viewBox="0 0 1920 535.29">
  <!-- Generator: Adobe Illustrator 30.1.0, SVG Export Plug-In . SVG Version: 2.1.1 Build 136)  -->
  <defs>
    <style>
      .st0 {
        fill: #f3c041;
      }

      .st1 {
        fill: #3793e2;
      }

      .st2 {
        fill: #e2835f;
      }

      .st3 {
        fill: #1b3039;
      }

      .st4 {
        fill: #c55051;
      }
    </style>
  </defs>
  <g>
    <path class="st4" d="M328.62,349.55l150.74,150.74c-25.69,20.48-58.26,32.75-93.7,32.75s-71.12-13.46-97.35-35.78c28.16-27.3,45.66-65.54,45.66-107.88,0-13.79-1.87-27.15-5.34-39.82Z"/>
    <path class="st1" d="M483.14,268.24l-100.96,100.98-97.74-97.74c26.73-24.32,62.22-39.15,101.22-39.15s71.25,13.51,97.48,35.91Z"/>
    <path class="st1" d="M536,382.68c0,38.97-14.83,74.49-39.15,101.22l-97.74-97.74,100.98-100.98c22.4,26.26,35.91,60.31,35.91,97.51Z"/>
    <path class="st0" d="M191.7,325.65L40.96,476.38c-20.48-25.69-32.75-58.26-32.75-93.7s13.46-71.12,35.78-97.35c27.3,28.16,65.54,45.66,107.88,45.66,13.79,0,27.15-1.87,39.82-5.34Z"/>
    <path class="st4" d="M273,480.17l-100.98-100.96,97.74-97.74c24.32,26.73,39.15,62.22,39.15,101.22s-13.51,71.25-35.91,97.48Z"/>
    <path class="st4" d="M158.56,533.03c-38.97,0-74.49-14.83-101.22-39.15l97.74-97.74,100.98,100.98c-26.26,22.4-60.31,35.91-97.51,35.91Z"/>
    <path class="st2" d="M215.6,193.52L64.87,42.78c25.69-20.48,58.26-32.75,93.7-32.75s71.12,13.46,97.35,35.78c-28.16,27.3-45.66,65.54-45.66,107.88,0,13.79,1.87,27.15,5.34,39.82Z"/>
    <path class="st0" d="M61.08,274.82l100.96-100.98,97.74,97.74c-26.73,24.32-62.22,39.15-101.22,39.15s-71.25-13.51-97.48-35.91Z"/>
    <path class="st0" d="M8.22,160.38c0-38.97,14.83-74.49,39.15-101.22l97.74,97.74-100.98,100.98c-22.4-26.26-35.91-60.31-35.91-97.51Z"/>
    <path class="st1" d="M352.52,217.42l150.74-150.74c20.48,25.69,32.75,58.26,32.75,93.7s-13.46,71.12-35.78,97.35c-27.3-28.16-65.54-45.66-107.88-45.66-13.79,0-27.15,1.87-39.82,5.34Z"/>
    <path class="st2" d="M271.21,62.9l100.98,100.96-97.74,97.74c-24.32-26.73-39.15-62.22-39.15-101.22s13.51-71.25,35.91-97.48Z"/>
    <path class="st2" d="M385.65,10.04c38.97,0,74.49,14.83,101.22,39.15l-97.74,97.74-100.98-100.98c26.26-22.4,60.31-35.91,97.51-35.91Z"/>
  </g>
  <g>
    <g>
      <polygon class="st3" points="873.96 80.95 873.96 315.84 831.4 315.84 831.4 178.33 779.74 267.73 771.33 282.78 741.97 282.78 733.3 267.73 681.63 178.33 681.63 315.84 639.07 315.84 639.07 80.95 674.69 80.95 681 91.91 756.51 222.59 832.03 91.91 838.34 80.95 873.96 80.95"/>
      <path class="st3" d="M1017.53,80.95h-21.68c-60.62,0-109.93,49.31-109.93,109.93v15.02c0,60.62,49.31,109.93,109.93,109.93h21.68c60.62,0,109.93-49.31,109.93-109.93v-15.02c0-60.62-49.31-109.93-109.93-109.93ZM1024.61,273.28h-35.84c-33.24,0-60.29-27.05-60.29-60.29v-29.19c0-33.24,27.05-60.29,60.29-60.29h35.84c33.24,0,60.29,27.05,60.29,60.29v29.19c0,33.24-27.05,60.29-60.29,60.29Z"/>
      <polygon class="st3" points="1432 80.95 1352.35 315.84 1291.23 315.84 1276.21 271.79 1261.35 315.84 1200.01 315.84 1120.38 80.95 1165.39 80.95 1230.69 273.34 1253.78 205.47 1211.37 80.95 1256.41 80.95 1298.28 203.94 1321.7 273.29 1386.97 80.95 1432 80.95"/>
      <path class="st3" d="M1557.35,117.22l-12.47-36.27h-66.88l-80.76,234.89h45.03l18.25-53.02h101.61l18.24,53.02h45.03l-68.05-198.62ZM1475.16,220.04l33.23-96.53h5.88l33.21,96.53h-72.32Z"/>
      <path class="st3" d="M1827.2,115.49c-20.58-21.95-49.77-34.54-80.08-34.54h-111.66v234.89h111.66c30.33,0,59.51-12.6,80.08-34.56,19.38-20.53,30.06-47.31,30.06-75.37v-15.02c0-28.06-10.68-54.84-30.06-75.39ZM1754.41,273.28h-76.37V123.51h76.37c33.13,0,60.07,27.05,60.07,60.29v29.19c0,33.24-26.94,60.29-60.07,60.29Z"/>
      <rect class="st3" x="1869.22" y="80.95" width="42.56" height="234.89"/>
    </g>
    <g>
      <path class="st4" d="M939.48,394.52h-5.21c-14.58,0-26.43,11.85-26.43,26.43v3.61c0,14.58,11.85,26.43,26.43,26.43h5.21c14.56,0,26.43-11.85,26.43-26.43v-3.61c0-14.58-11.87-26.43-26.43-26.43ZM941.17,440.68h-8.6c-7.95,0-14.42-6.46-14.42-14.42v-7c0-7.95,6.46-14.42,14.42-14.42h8.6c7.95,0,14.42,6.46,14.42,14.42v7c0,7.95-6.46,14.42-14.42,14.42Z"/>
      <polygon class="st4" points="1017.16 394.52 998.02 450.99 983.22 450.99 964.08 394.52 974.98 394.52 990.62 440.6 1006.26 394.52 1017.16 394.52"/>
      <polygon class="st4" points="1029.78 404.84 1029.78 418.37 1058.47 418.37 1058.47 428.68 1029.78 428.68 1029.78 440.68 1064.81 440.68 1064.81 450.99 1019.46 450.99 1019.46 394.52 1064.81 394.52 1064.81 404.84 1029.78 404.84"/>
      <path class="st4" d="M1120.92,414.77c0-5.4-2.12-10.49-5.97-14.34-3.8-3.82-8.89-5.91-14.32-5.91h-33.04v56.47h10.32v-15.92h21.06l9.22,15.92h11.92l-10.43-18.06c6.88-3.42,11.25-10.41,11.25-18.16ZM1110.55,413.08v3.45c0,3.93-2.77,7.32-6.64,8.05-.57.1-1.09.19-1.6.19h-24.42v-19.93h24.42c4.55,0,8.24,3.69,8.24,8.24Z"/>
      <path class="st4" d="M1176.85,438.57c-.74,4.26-3.71,7.76-8.37,9.89-3.07,1.41-6.67,2.17-11.3,2.38h-.27c-1.22.06-3.28.17-5.77.17s-5.28-.11-8.07-.43c-3.14-.33-5.89-.92-8.16-1.77-3.12-1.09-5.58-2.57-7.45-4.52-2.79-2.95-4.07-6.75-3.74-11.01l.1-1.17,9.98.73-.08,1.19c-.13,1.84.46,2.72.98,3.28,1.08,1.09,3.64,2.57,9.51,3.23,4.44.49,8.92.36,12.33.21h.21c3.22-.16,5.77-.65,7.54-1.49.73-.33,2.41-1.22,2.63-2.44.17-.9-.48-2.15-1.71-3.36l-.36-.35c-2.01-1.43-8.52-3.36-14.85-5.21-9.09-2.69-18.52-5.47-21.6-8.51-3.63-3.58-5.29-8.1-4.55-12.39.73-4.25,3.69-7.76,8.35-9.89,3.07-1.41,6.67-2.17,11.31-2.38h.25c3.77-.19,8.81-.33,13.79.21,3.12.38,5.86.97,8.19,1.76,3.11,1.11,5.61,2.66,7.43,4.59,2.8,2.9,4.1,6.72,3.77,11l-.1,1.19-10.06-.81.11-1.19c.17-1.84-.46-2.69-.93-3.19-.92-.93-3.33-2.6-9.49-3.26-4.75-.57-9.51-.33-12.34-.19h-.21c-3.25.14-5.75.63-7.59,1.49-1.54.71-2.46,1.57-2.57,2.39-.19.97.43,2.22,1.65,3.39,1.52,1.52,8.49,3.58,15.24,5.58,9.09,2.68,18.51,5.45,21.55,8.49,3.68,3.57,5.36,8.08,4.63,12.39Z"/>
      <polygon class="st4" points="1190.09 404.84 1190.09 418.37 1218.79 418.37 1218.79 428.68 1190.09 428.68 1190.09 440.68 1225.13 440.68 1225.13 450.99 1179.78 450.99 1179.78 394.52 1225.13 394.52 1225.13 404.84 1190.09 404.84"/>
      <path class="st4" d="M1262.97,394.52h-16.13l-19.41,56.47h10.92l4.37-12.72h24.32l4.37,12.72h10.92l-19.36-56.47ZM1246.27,427.91l7.94-23.07h1.35l7.94,23.07h-17.22Z"/>
      <path class="st4" d="M1337.79,438.57c-.74,4.26-3.71,7.76-8.37,9.89-3.07,1.41-6.67,2.17-11.3,2.38h-.27c-1.22.06-3.3.17-5.77.17s-5.28-.11-8.08-.43c-3.12-.33-5.88-.92-8.16-1.77-3.12-1.09-5.56-2.57-7.43-4.52-2.79-2.95-4.07-6.75-3.74-11.01l.1-1.17,9.98.73-.08,1.19c-.13,1.84.46,2.72.98,3.28,1.08,1.09,3.64,2.57,9.51,3.23,4.44.49,8.92.36,12.33.21h.21c3.22-.16,5.77-.65,7.53-1.49.74-.33,2.42-1.22,2.65-2.44.17-.9-.48-2.15-1.71-3.36l-.36-.35c-2.01-1.43-8.52-3.36-14.85-5.21-9.09-2.69-18.52-5.47-21.6-8.51-3.63-3.58-5.29-8.1-4.56-12.39.74-4.25,3.71-7.76,8.37-9.89,3.07-1.41,6.67-2.17,11.31-2.38h.25c3.77-.19,8.81-.33,13.79.21,3.12.38,5.86.97,8.18,1.76,3.12,1.11,5.62,2.66,7.45,4.59,2.8,2.9,4.1,6.72,3.77,11l-.1,1.19-10.06-.81.11-1.19c.17-1.84-.46-2.69-.95-3.19-.9-.93-3.31-2.6-9.48-3.26-4.75-.57-9.51-.33-12.34-.19h-.21c-3.25.14-5.75.63-7.59,1.49-1.54.71-2.46,1.57-2.58,2.39-.17.97.44,2.22,1.66,3.39,1.52,1.52,8.49,3.58,15.24,5.58,9.09,2.68,18.51,5.45,21.55,8.49,3.68,3.57,5.36,8.08,4.63,12.39Z"/>
      <polygon class="st4" points="1397.3 440.68 1397.3 450.99 1359.89 450.99 1359.89 394.52 1370.19 394.52 1370.19 440.68 1397.3 440.68"/>
      <rect class="st4" x="1400.07" y="394.52" width="10.32" height="56.47"/>
      <g>
        <polygon class="st4" points="1485.48 394.52 1538.81 394.52 1538.81 404.84 1517.32 404.84 1517.32 450.99 1506.96 450.99 1506.96 404.84 1485.48 404.84 1485.48 394.52"/>
        <polygon class="st4" points="1551.9 404.84 1551.9 418.37 1580.59 418.37 1580.59 428.68 1551.9 428.68 1551.9 440.68 1586.93 440.68 1586.93 450.99 1541.58 450.99 1541.58 394.52 1586.93 394.52 1586.93 404.84 1551.9 404.84"/>
        <rect class="st4" x="1472.39" y="394.52" width="10.31" height="56.47"/>
        <polygon class="st4" points="1461 394.52 1469.63 394.52 1469.63 450.99 1459.32 450.99 1459.32 418.11 1444.98 443.05 1437.86 443.05 1423.46 418.11 1423.46 450.99 1413.16 450.99 1413.16 394.52 1421.78 394.52 1441.4 428.48 1461 394.52"/>
      </g>
      <path class="st4" d="M1635.8,402.82c-4.94-5.28-11.96-8.3-19.25-8.3h-26.84v56.47h26.84c7.29,0,14.31-3.03,19.25-8.3,4.66-4.94,7.23-11.38,7.23-18.13v-3.61c0-6.75-2.57-13.18-7.23-18.13ZM1618.29,440.68h-18.29v-35.84h18.29c7.94,0,14.37,6.46,14.37,14.42v7c0,7.95-6.43,14.42-14.37,14.42Z"/>
    </g>
  </g>
</svg>